<?xml version="1.0" encoding="UTF-8" standalone="no"?>
<!-- Created with Inkscape (http://www.inkscape.org/) -->

<svg
   xmlns:dc="http://purl.org/dc/elements/1.1/"
   xmlns:cc="http://creativecommons.org/ns#"
   xmlns:rdf="http://www.w3.org/1999/02/22-rdf-syntax-ns#"
   xmlns:svg="http://www.w3.org/2000/svg"
   xmlns="http://www.w3.org/2000/svg"
   xmlns:xlink="http://www.w3.org/1999/xlink"
   xmlns:sodipodi="http://sodipodi.sourceforge.net/DTD/sodipodi-0.dtd"
   xmlns:inkscape="http://www.inkscape.org/namespaces/inkscape"
   width="1000"
   height="1000"
   id="svg2"
   version="1.1"
   inkscape:version="0.48.3.1 r9886"
   sodipodi:docname="zh.svg">
  <defs
     id="defs4" />
  <sodipodi:namedview
     id="base"
     pagecolor="#ffffff"
     bordercolor="#666666"
     borderopacity="1.0"
     inkscape:pageopacity="0.0"
     inkscape:pageshadow="2"
     inkscape:zoom="1.4142136"
     inkscape:cx="523.28039"
     inkscape:cy="599.9355"
     inkscape:document-units="px"
     inkscape:current-layer="layer3"
     showgrid="true"
     inkscape:window-width="1280"
     inkscape:window-height="980"
     inkscape:window-x="0"
     inkscape:window-y="24"
     inkscape:window-maximized="1"
     showguides="true"
     inkscape:guide-bbox="true"
     inkscape:snap-global="true">
    <inkscape:grid
       type="xygrid"
       id="grid2985"
       empspacing="4"
       visible="true"
       enabled="true"
       snapvisiblegridlinesonly="true"
       spacingx="7px"
       spacingy="7px"
       dotted="false"
       empcolor="#1a0073"
       empopacity="0.49803922"
       originy="200px" />
    <sodipodi:guide
       orientation="0,1"
       position="420,200"
       id="guide3006" />
    <sodipodi:guide
       orientation="0,1"
       position="0,760"
       id="guide3008" />
    <sodipodi:guide
       orientation="1,0"
       position="84,1012"
       id="guide3010" />
  </sodipodi:namedview>
  <metadata
     id="metadata7">
    <rdf:RDF>
      <cc:Work
         rdf:about="">
        <dc:format>image/svg+xml</dc:format>
        <dc:type
           rdf:resource="http://purl.org/dc/dcmitype/StillImage" />
        <dc:title />
      </cc:Work>
    </rdf:RDF>
  </metadata>
  <g
     inkscape:label="bitmap"
     inkscape:groupmode="layer"
     id="layer1"
     transform="translate(0,-52.362183)"
     style="opacity:0.33000004"
     sodipodi:insensitive="true">
    <text
       xml:space="preserve"
       style="font-size:16px;font-style:normal;font-variant:normal;font-weight:normal;font-stretch:normal;text-align:end;line-height:125%;letter-spacing:0px;word-spacing:0px;writing-mode:lr-tb;text-anchor:end;fill:#000000;fill-opacity:1;stroke:none;font-family:Droid Sans;-inkscape-font-specification:Droid Sans"
       x="-5.9505138"
       y="871.17053"
       id="text3143"
       sodipodi:linespacing="125%"><tspan
         sodipodi:role="line"
         id="tspan3145"
         x="-5.9505138"
         y="871.17053">0</tspan></text>
    <text
       sodipodi:linespacing="125%"
       id="text3147"
       y="731.17053"
       x="-5.9505138"
       style="font-size:16px;font-style:normal;font-variant:normal;font-weight:normal;font-stretch:normal;text-align:end;line-height:125%;letter-spacing:0px;word-spacing:0px;writing-mode:lr-tb;text-anchor:end;fill:#000000;fill-opacity:1;stroke:none;font-family:Droid Sans;-inkscape-font-specification:Droid Sans"
       xml:space="preserve"><tspan
         y="731.17053"
         x="-5.9505138"
         id="tspan3149"
         sodipodi:role="line">5</tspan></text>
    <text
       sodipodi:linespacing="125%"
       id="text3151"
       y="591.17053"
       x="-5.9505138"
       style="font-size:16px;font-style:normal;font-variant:normal;font-weight:normal;font-stretch:normal;text-align:end;line-height:125%;letter-spacing:0px;word-spacing:0px;writing-mode:lr-tb;text-anchor:end;fill:#000000;fill-opacity:1;stroke:none;font-family:Droid Sans;-inkscape-font-specification:Droid Sans"
       xml:space="preserve"><tspan
         y="591.17053"
         x="-5.9505138"
         id="tspan3153"
         sodipodi:role="line">10</tspan></text>
    <text
       xml:space="preserve"
       style="font-size:16px;font-style:normal;font-variant:normal;font-weight:normal;font-stretch:normal;text-align:end;line-height:125%;letter-spacing:0px;word-spacing:0px;writing-mode:lr-tb;text-anchor:end;fill:#000000;fill-opacity:1;stroke:none;font-family:Droid Sans;-inkscape-font-specification:Droid Sans"
       x="-5.9505138"
       y="451.17053"
       id="text3155"
       sodipodi:linespacing="125%"><tspan
         sodipodi:role="line"
         id="tspan3157"
         x="-5.9505138"
         y="451.17053">15</tspan></text>
    <text
       xml:space="preserve"
       style="font-size:16px;font-style:normal;font-variant:normal;font-weight:normal;font-stretch:normal;text-align:end;line-height:125%;letter-spacing:0px;word-spacing:0px;writing-mode:lr-tb;text-anchor:end;fill:#000000;fill-opacity:1;stroke:none;font-family:Droid Sans;-inkscape-font-specification:Droid Sans"
       x="-5.9505138"
       y="311.17053"
       id="text3159"
       sodipodi:linespacing="125%"><tspan
         sodipodi:role="line"
         id="tspan3161"
         x="-5.9505138"
         y="311.17053">20</tspan></text>
    <use
       x="0"
       y="0"
       xlink:href="#text3147"
       id="use3165"
       transform="translate(138,140)"
       width="1000"
       height="1000" />
    <use
       x="0"
       y="0"
       xlink:href="#text3151"
       id="use3167"
       transform="translate(278,280)"
       width="1000"
       height="1000" />
    <use
       x="0"
       y="0"
       xlink:href="#text3155"
       id="use3169"
       transform="translate(418,420)"
       width="1000"
       height="1000" />
    <use
       x="0"
       y="0"
       xlink:href="#text3159"
       id="use3171"
       transform="translate(558,560)"
       width="1000"
       height="1000" />
    <image
       y="260.91913"
       x="-13.268765"
       id="image3089"
       xlink:href="file:///home/as/font/gost/glyphs/cyrillic/capital/zh.png"
       height="820.9989"
       width="922.1601" />
  </g>
  <g
     inkscape:groupmode="layer"
     id="layer3"
     inkscape:label="glyph"
     style="display:inline">
    <path
       style="fill:#800000;stroke:none"
       d="m 126,233 -28,94 c 54.104,0 70,25 98,67 24.46601,36.69902 70,98 95,101 -67,4 -88.46684,55.93397 -123,116 -40.90273,71.1451 -69.65812,151.04471 -119,189 l 126,0 c 21,-35 70,-126 105,-189 24.51415,-44.12546 49,-70 77,-70 14.03567,0 42,3 42,3 l 0,256 98,0 0,-256 c 0,0 27.96433,-3 42,-3 28,0 52.48585,25.87454 77,70 35,63 84,154 105,189 l 126,0 C 797.65812,762.04471 768.90273,682.1451 728,611 693.46684,550.93397 672,499 605,495 c 25,-3 70.53399,-64.30098 95,-101 28,-42 43.896,-67 98,-67 l -28,-94 c -34.78525,1.73926 -66.70958,13.92771 -91,35 -73.4711,63.73724 -98,189 -175,186 -4.21732,-0.16431 -5.15128,-0.68083 -7,-2 l 0,-212 -98,0 0,212 c -1.84872,1.31917 -2.78268,1.83569 -7,2 -77,3 -101.5289,-122.26276 -175,-186 -24.29042,-21.07229 -56.21475,-33.26074 -91,-35 z"
       id="path3106"
       inkscape:connector-curvature="0"
       sodipodi:nodetypes="ccscsccssccccssccscsccssccccssc" />
  </g>
</svg>
