<?xml version="1.0" encoding="UTF-8" standalone="no"?>
<svg
   xmlns:dc="http://purl.org/dc/elements/1.1/"
   xmlns:cc="http://creativecommons.org/ns#"
   xmlns:rdf="http://www.w3.org/1999/02/22-rdf-syntax-ns#"
   xmlns:svg="http://www.w3.org/2000/svg"
   xmlns="http://www.w3.org/2000/svg"
   xmlns:xlink="http://www.w3.org/1999/xlink"
   version="1.1"
   id="svg2"
   height="1000"
   width="1000">
  <defs
     id="defs4" />
  <metadata
     id="metadata7">
    <rdf:RDF>
      <cc:Work
         rdf:about="">
        <dc:format>image/svg+xml</dc:format>
        <dc:type
           rdf:resource="http://purl.org/dc/dcmitype/StillImage" />
        <dc:title></dc:title>
      </cc:Work>
    </rdf:RDF>
  </metadata>
  <g
     style="opacity:0.33000004;display:inline"
     transform="translate(0,-52.362183)"
     id="layer1">
    <text
       id="text3143"
       y="871.17053"
       x="-5.9505138"
       style="font-size:16px;font-style:normal;font-variant:normal;font-weight:normal;font-stretch:normal;text-align:end;line-height:125%;letter-spacing:0px;word-spacing:0px;writing-mode:lr-tb;text-anchor:end;fill:#000000;fill-opacity:1;stroke:none;font-family:Droid Sans;-inkscape-font-specification:Droid Sans"
       xml:space="preserve"><tspan
         y="871.17053"
         x="-5.9505138"
         id="tspan3145">0</tspan></text>
    <text
       xml:space="preserve"
       style="font-size:16px;font-style:normal;font-variant:normal;font-weight:normal;font-stretch:normal;text-align:end;line-height:125%;letter-spacing:0px;word-spacing:0px;writing-mode:lr-tb;text-anchor:end;fill:#000000;fill-opacity:1;stroke:none;font-family:Droid Sans;-inkscape-font-specification:Droid Sans"
       x="-5.9505138"
       y="731.17053"
       id="text3147"><tspan
         id="tspan3149"
         x="-5.9505138"
         y="731.17053">5</tspan></text>
    <text
       xml:space="preserve"
       style="font-size:16px;font-style:normal;font-variant:normal;font-weight:normal;font-stretch:normal;text-align:end;line-height:125%;letter-spacing:0px;word-spacing:0px;writing-mode:lr-tb;text-anchor:end;fill:#000000;fill-opacity:1;stroke:none;font-family:Droid Sans;-inkscape-font-specification:Droid Sans"
       x="-5.9505138"
       y="591.17053"
       id="text3151"><tspan
         id="tspan3153"
         x="-5.9505138"
         y="591.17053">10</tspan></text>
    <text
       id="text3155"
       y="451.17053"
       x="-5.9505138"
       style="font-size:16px;font-style:normal;font-variant:normal;font-weight:normal;font-stretch:normal;text-align:end;line-height:125%;letter-spacing:0px;word-spacing:0px;writing-mode:lr-tb;text-anchor:end;fill:#000000;fill-opacity:1;stroke:none;font-family:Droid Sans;-inkscape-font-specification:Droid Sans"
       xml:space="preserve"><tspan
         y="451.17053"
         x="-5.9505138"
         id="tspan3157">15</tspan></text>
    <text
       id="text3159"
       y="311.17053"
       x="-5.9505138"
       style="font-size:16px;font-style:normal;font-variant:normal;font-weight:normal;font-stretch:normal;text-align:end;line-height:125%;letter-spacing:0px;word-spacing:0px;writing-mode:lr-tb;text-anchor:end;fill:#000000;fill-opacity:1;stroke:none;font-family:Droid Sans;-inkscape-font-specification:Droid Sans"
       xml:space="preserve"><tspan
         y="311.17053"
         x="-5.9505138"
         id="tspan3161">20</tspan></text>
    <use
       height="1000"
       width="1000"
       transform="translate(138,140)"
       id="use3165"
       xlink:href="#text3147"
       y="0"
       x="0" />
    <use
       height="1000"
       width="1000"
       transform="translate(278,280)"
       id="use3167"
       xlink:href="#text3151"
       y="0"
       x="0" />
    <use
       height="1000"
       width="1000"
       transform="translate(418,420)"
       id="use3169"
       xlink:href="#text3155"
       y="0"
       x="0" />
    <use
       height="1000"
       width="1000"
       transform="translate(558,560)"
       id="use3171"
       xlink:href="#text3159"
       y="0"
       x="0" />
    <image
       width="528.5"
       height="820.93933"
       xlink:href="file:///home/as/font/gost/glyphs/cyrillic/small/b.png"
       id="image3227"
       x="-12.5"
       y="259.53375" />
  </g>
  <g
     style="display:inline"
     id="layer3">
    <path
       id="path3232"
       d="m 195.08594,219.82617 -37.79883,75.59961 C 204.46303,298.94697 243.36359,298.1228 285.5,317 339.98784,341.41067 364,401 364,478 350,450 315,408 245,408 147,408 70,478 70,611 70,709 133,814 252,814 406,814 441,653 441,520 441,406.07215 410.91759,272.88671 273,236.5 247.31933,229.72468 228.89305,226.0123 195.08594,219.82617 Z M 252,478 c 35,0 91,35 91,133 0,98 -56,133 -91,133 -42,0 -91,-35 -91,-133 0,-98 49,-133 91,-133 z"
       style="color:#000000;display:inline;overflow:visible;visibility:visible;opacity:0.66000001;fill:#800000;stroke:none;stroke-width:2;stroke-linecap:round;stroke-linejoin:round;stroke-miterlimit:4;stroke-dashoffset:0;stroke-opacity:1;marker:none;enable-background:accumulate" />
  </g>
</svg>
