<?xml version="1.0" encoding="UTF-8" standalone="no"?>
<!-- Created with Inkscape (http://www.inkscape.org/) -->

<svg
   xmlns:dc="http://purl.org/dc/elements/1.1/"
   xmlns:cc="http://creativecommons.org/ns#"
   xmlns:rdf="http://www.w3.org/1999/02/22-rdf-syntax-ns#"
   xmlns:svg="http://www.w3.org/2000/svg"
   xmlns="http://www.w3.org/2000/svg"
   xmlns:xlink="http://www.w3.org/1999/xlink"
   xmlns:sodipodi="http://sodipodi.sourceforge.net/DTD/sodipodi-0.dtd"
   xmlns:inkscape="http://www.inkscape.org/namespaces/inkscape"
   width="1000"
   height="1000"
   id="svg2"
   version="1.1"
   inkscape:version="0.91 r13725"
   sodipodi:docname="registered.svg">
  <defs
     id="defs4" />
  <sodipodi:namedview
     id="base"
     pagecolor="#ffffff"
     bordercolor="#666666"
     borderopacity="1.0"
     inkscape:pageopacity="0.0"
     inkscape:pageshadow="2"
     inkscape:zoom="2.8284271"
     inkscape:cx="532.17733"
     inkscape:cy="270.50137"
     inkscape:document-units="px"
     inkscape:current-layer="layer3"
     showgrid="true"
     inkscape:window-width="1280"
     inkscape:window-height="970"
     inkscape:window-x="0"
     inkscape:window-y="25"
     inkscape:window-maximized="1"
     showguides="true"
     inkscape:guide-bbox="true"
     inkscape:snap-global="true"
     inkscape:object-paths="true"
     inkscape:snap-bbox="true"
     inkscape:snap-intersection-paths="true"
     inkscape:object-nodes="true"
     inkscape:snap-smooth-nodes="true">
    <inkscape:grid
       type="xygrid"
       id="grid2985"
       empspacing="4"
       visible="true"
       enabled="true"
       snapvisiblegridlinesonly="true"
       spacingx="7px"
       spacingy="7px"
       dotted="false"
       empcolor="#1a0073"
       empopacity="0.49803922"
       originy="200px" />
    <sodipodi:guide
       orientation="0,1"
       position="420,200"
       id="guide3006" />
    <sodipodi:guide
       orientation="0,1"
       position="0,760"
       id="guide3008" />
    <sodipodi:guide
       orientation="1,0"
       position="84,1012"
       id="guide3010" />
  </sodipodi:namedview>
  <metadata
     id="metadata7">
    <rdf:RDF>
      <cc:Work
         rdf:about="">
        <dc:format>image/svg+xml</dc:format>
        <dc:type
           rdf:resource="http://purl.org/dc/dcmitype/StillImage" />
        <dc:title></dc:title>
      </cc:Work>
    </rdf:RDF>
  </metadata>
  <g
     inkscape:label="bitmap"
     inkscape:groupmode="layer"
     id="layer1"
     transform="translate(0,-52.362183)"
     style="opacity:0.33000004"
     sodipodi:insensitive="true">
    <text
       xml:space="preserve"
       style="font-size:16px;font-style:normal;font-variant:normal;font-weight:normal;font-stretch:normal;text-align:end;line-height:125%;letter-spacing:0px;word-spacing:0px;writing-mode:lr-tb;text-anchor:end;fill:#000000;fill-opacity:1;stroke:none;font-family:Droid Sans;-inkscape-font-specification:Droid Sans"
       x="-5.9505138"
       y="871.17053"
       id="text3143"
       sodipodi:linespacing="125%"><tspan
         sodipodi:role="line"
         id="tspan3145"
         x="-5.9505138"
         y="871.17053">0</tspan></text>
    <text
       sodipodi:linespacing="125%"
       id="text3147"
       y="731.17053"
       x="-5.9505138"
       style="font-size:16px;font-style:normal;font-variant:normal;font-weight:normal;font-stretch:normal;text-align:end;line-height:125%;letter-spacing:0px;word-spacing:0px;writing-mode:lr-tb;text-anchor:end;fill:#000000;fill-opacity:1;stroke:none;font-family:Droid Sans;-inkscape-font-specification:Droid Sans"
       xml:space="preserve"><tspan
         y="731.17053"
         x="-5.9505138"
         id="tspan3149"
         sodipodi:role="line">5</tspan></text>
    <text
       sodipodi:linespacing="125%"
       id="text3151"
       y="591.17053"
       x="-5.9505138"
       style="font-size:16px;font-style:normal;font-variant:normal;font-weight:normal;font-stretch:normal;text-align:end;line-height:125%;letter-spacing:0px;word-spacing:0px;writing-mode:lr-tb;text-anchor:end;fill:#000000;fill-opacity:1;stroke:none;font-family:Droid Sans;-inkscape-font-specification:Droid Sans"
       xml:space="preserve"><tspan
         y="591.17053"
         x="-5.9505138"
         id="tspan3153"
         sodipodi:role="line">10</tspan></text>
    <text
       xml:space="preserve"
       style="font-size:16px;font-style:normal;font-variant:normal;font-weight:normal;font-stretch:normal;text-align:end;line-height:125%;letter-spacing:0px;word-spacing:0px;writing-mode:lr-tb;text-anchor:end;fill:#000000;fill-opacity:1;stroke:none;font-family:Droid Sans;-inkscape-font-specification:Droid Sans"
       x="-5.9505138"
       y="451.17053"
       id="text3155"
       sodipodi:linespacing="125%"><tspan
         sodipodi:role="line"
         id="tspan3157"
         x="-5.9505138"
         y="451.17053">15</tspan></text>
    <text
       xml:space="preserve"
       style="font-size:16px;font-style:normal;font-variant:normal;font-weight:normal;font-stretch:normal;text-align:end;line-height:125%;letter-spacing:0px;word-spacing:0px;writing-mode:lr-tb;text-anchor:end;fill:#000000;fill-opacity:1;stroke:none;font-family:Droid Sans;-inkscape-font-specification:Droid Sans"
       x="-5.9505138"
       y="311.17053"
       id="text3159"
       sodipodi:linespacing="125%"><tspan
         sodipodi:role="line"
         id="tspan3161"
         x="-5.9505138"
         y="311.17053">20</tspan></text>
    <use
       x="0"
       y="0"
       xlink:href="#text3147"
       id="use3165"
       transform="translate(138,140)"
       width="1000"
       height="1000" />
    <use
       x="0"
       y="0"
       xlink:href="#text3151"
       id="use3167"
       transform="translate(278,280)"
       width="1000"
       height="1000" />
    <use
       x="0"
       y="0"
       xlink:href="#text3155"
       id="use3169"
       transform="translate(418,420)"
       width="1000"
       height="1000" />
    <use
       x="0"
       y="0"
       xlink:href="#text3159"
       id="use3171"
       transform="translate(558,560)"
       width="1000"
       height="1000" />
    <image
       y="260.27222"
       x="-11.296912"
       id="image3131"
       xlink:href="file:///home/as/font/gost/glyphs/latin/capital/c.png"
       height="820.67621"
       width="589.6897" />
  </g>
  <g
     inkscape:groupmode="layer"
     id="layer3"
     inkscape:label="glyph"
     style="display:inline">
    <path
       style="color:#000000;clip-rule:nonzero;display:inline;overflow:visible;visibility:visible;opacity:0.8;isolation:auto;mix-blend-mode:normal;color-interpolation:sRGB;color-interpolation-filters:linearRGB;solid-color:#000000;solid-opacity:1;fill:#ff0000;fill-opacity:1;fill-rule:nonzero;stroke:none;stroke-width:3;stroke-linecap:butt;stroke-linejoin:miter;stroke-miterlimit:4;stroke-dasharray:none;stroke-dashoffset:0;stroke-opacity:1;marker:none;color-rendering:auto;image-rendering:auto;shape-rendering:auto;text-rendering:auto;enable-background:accumulate"
       d="M 308,268 A 308,308 0 0 0 0,576 308,308 0 0 0 308,884 308,308 0 0 0 616,576 308,308 0 0 0 308,268 Z m 0,28 A 280,280 0 0 1 588,576 280,280 0 0 1 308,856 280,280 0 0 1 28,576 280,280 0 0 1 308,296 Z"
       id="path8142"
       inkscape:connector-curvature="0" />
    <path
       style="display:inline;opacity:0.8;fill:#800000;stroke:none"
       d="M 300.22656,346.65625 126,346.82617 126,771.82227 224,772 224,604 c 36.32637,1.06022 74.61162,-5.43059 108.82812,10.10352 27.91028,14.28301 43.13224,43.3591 59.75598,68.53356 17.5421,28.658 31.76536,59.76038 53.50574,85.6344 10.11809,7.21936 22.95439,1.96785 34.27733,3.42097 20.85748,-0.17154 41.92534,1.20842 62.65431,-0.92487 7.72604,-3.85232 6.2749,-16.08032 -0.94531,-19.66602 -34.91497,-35.77245 -52.07447,-84.02446 -82.375,-123.25195 -16.95013,-22.71834 -38.19944,-44.55867 -66.0332,-53.01367 31.81631,-10.59997 63.11068,-28.4032 81.17282,-57.59735 15.38676,-23.97025 20.2567,-54.95967 10.18345,-81.93356 -13.17984,-38.69728 -48.52869,-66.55262 -87.13166,-77.34605 -31.52122,-9.82251 -64.86794,-11.5171 -97.66602,-11.30273 z m -18.56836,68.01172 c 32.97838,0.30132 68.95944,3.31357 95.24805,25.45117 18.86685,17.13956 20.96312,50.3904 1.80045,68.14775 -20.2607,20.58357 -50.55915,25.14951 -78.04459,27.05538 l -76.90625,-0.39649 0.26396,-23.50195 -0.0257,-96.58008 57.66406,-0.17578 z"
       id="path4965"
       inkscape:connector-curvature="0"
       sodipodi:nodetypes="cccccccccccccccccccccccccc" />
  </g>
</svg>
