<?xml version="1.0" encoding="UTF-8" standalone="no"?>
<svg
   xmlns:dc="http://purl.org/dc/elements/1.1/"
   xmlns:cc="http://creativecommons.org/ns#"
   xmlns:rdf="http://www.w3.org/1999/02/22-rdf-syntax-ns#"
   xmlns:svg="http://www.w3.org/2000/svg"
   xmlns="http://www.w3.org/2000/svg"
   xmlns:xlink="http://www.w3.org/1999/xlink"
   version="1.1"
   id="svg2"
   height="1000"
   width="1000">
  <defs
     id="defs4">
    <clipPath
       id="clipPath3599"
       clipPathUnits="userSpaceOnUse">
      <rect
         style="color:#000000;clip-rule:nonzero;display:inline;overflow:visible;visibility:visible;opacity:0.5;isolation:auto;mix-blend-mode:normal;color-interpolation:sRGB;color-interpolation-filters:linearRGB;solid-color:#000000;solid-opacity:1;fill:#ff0000;fill-opacity:1;fill-rule:evenodd;stroke:none;stroke-width:28;stroke-linecap:butt;stroke-linejoin:round;stroke-miterlimit:4;stroke-dasharray:none;stroke-dashoffset:0;stroke-opacity:1;marker:none;color-rendering:auto;image-rendering:auto;shape-rendering:auto;text-rendering:auto;enable-background:accumulate"
         id="rect3601"
         width="725.50891"
         height="760.84692"
         x="-220.55243"
         y="-497.05612" />
    </clipPath>
  </defs>
  <metadata
     id="metadata7">
    <rdf:RDF>
      <cc:Work
         rdf:about="">
        <dc:format>image/svg+xml</dc:format>
        <dc:type
           rdf:resource="http://purl.org/dc/dcmitype/StillImage" />
        <dc:title></dc:title>
      </cc:Work>
    </rdf:RDF>
  </metadata>
  <g
     style="display:inline;opacity:0.33000004"
     transform="translate(0,-52.362183)"
     id="layer1">
    <image
       transform="matrix(1.0733598,0,0,1.0792557,193.00001,808.81286)"
       clip-path="url(#clipPath3599)"
       width="3127.5"
       height="4405"
       preserveAspectRatio="none"
       style="image-rendering:optimizeSpeed"
       xlink:href="file:///home/as/font/gost/road/i78/111.png"
       id="image3589"
       x="-1731.75"
       y="-1838.1378" />
    <text
       id="text3143"
       y="871.17053"
       x="-5.9505138"
       style="font-style:normal;font-variant:normal;font-weight:normal;font-stretch:normal;font-size:16px;line-height:125%;font-family:'Droid Sans';-inkscape-font-specification:'Droid Sans';text-align:end;letter-spacing:0px;word-spacing:0px;writing-mode:lr-tb;text-anchor:end;fill:#000000;fill-opacity:1;stroke:none"
       xml:space="preserve"><tspan
         y="871.17053"
         x="-5.9505138"
         id="tspan3145">0</tspan></text>
    <text
       xml:space="preserve"
       style="font-style:normal;font-variant:normal;font-weight:normal;font-stretch:normal;font-size:16px;line-height:125%;font-family:'Droid Sans';-inkscape-font-specification:'Droid Sans';text-align:end;letter-spacing:0px;word-spacing:0px;writing-mode:lr-tb;text-anchor:end;fill:#000000;fill-opacity:1;stroke:none"
       x="-5.9505138"
       y="731.17053"
       id="text3147"><tspan
         id="tspan3149"
         x="-5.9505138"
         y="731.17053">5</tspan></text>
    <text
       xml:space="preserve"
       style="font-style:normal;font-variant:normal;font-weight:normal;font-stretch:normal;font-size:16px;line-height:125%;font-family:'Droid Sans';-inkscape-font-specification:'Droid Sans';text-align:end;letter-spacing:0px;word-spacing:0px;writing-mode:lr-tb;text-anchor:end;fill:#000000;fill-opacity:1;stroke:none"
       x="-5.9505138"
       y="591.17053"
       id="text3151"><tspan
         id="tspan3153"
         x="-5.9505138"
         y="591.17053">10</tspan></text>
    <text
       id="text3155"
       y="451.17053"
       x="-5.9505138"
       style="font-style:normal;font-variant:normal;font-weight:normal;font-stretch:normal;font-size:16px;line-height:125%;font-family:'Droid Sans';-inkscape-font-specification:'Droid Sans';text-align:end;letter-spacing:0px;word-spacing:0px;writing-mode:lr-tb;text-anchor:end;fill:#000000;fill-opacity:1;stroke:none"
       xml:space="preserve"><tspan
         y="451.17053"
         x="-5.9505138"
         id="tspan3157">15</tspan></text>
    <text
       id="text3159"
       y="311.17053"
       x="-5.9505138"
       style="font-style:normal;font-variant:normal;font-weight:normal;font-stretch:normal;font-size:16px;line-height:125%;font-family:'Droid Sans';-inkscape-font-specification:'Droid Sans';text-align:end;letter-spacing:0px;word-spacing:0px;writing-mode:lr-tb;text-anchor:end;fill:#000000;fill-opacity:1;stroke:none"
       xml:space="preserve"><tspan
         y="311.17053"
         x="-5.9505138"
         id="tspan3161">20</tspan></text>
    <use
       height="1000"
       width="1000"
       transform="translate(138,140)"
       id="use3165"
       xlink:href="#text3147"
       y="0"
       x="0" />
    <use
       height="1000"
       width="1000"
       transform="translate(278,280)"
       id="use3167"
       xlink:href="#text3151"
       y="0"
       x="0" />
    <use
       height="1000"
       width="1000"
       transform="translate(418,420)"
       id="use3169"
       xlink:href="#text3155"
       y="0"
       x="0" />
    <use
       height="1000"
       width="1000"
       transform="translate(566,558)"
       id="use3171"
       xlink:href="#text3159"
       y="0"
       x="0" />
  </g>
  <g
     style="display:inline"
     id="layer3">
    <path
       id="path3612"
       d="m 507,401 c -70,0 -115,63 -115,63 l 0,-56 -84,0 0,392 84,0 0,-245 c 14,-49 49.85582,-75 90,-75 14.5422,0 28.87566,4.50291 37.77273,16.80895 C 528.61817,509.04357 532.06968,527.04075 532,541 l -1.29289,259 84,0 0,-280 C 614.70711,450 584,401 507,401 Z"
       style="opacity:0.8;fill:#8b0000;stroke:none;stroke-width:1px;stroke-linecap:butt;stroke-linejoin:miter;stroke-opacity:1" />
    <path
       style="opacity:0.8;fill:#9acd32;stroke:none;stroke-width:1px;stroke-linecap:butt;stroke-linejoin:miter;stroke-opacity:1"
       d="m 192.70711,807 c 87.29289,0 115,-57 115,-57 l 0,50 84,0 0,-392 -84,0 0,273 c -27.70711,35 -49.85582,51 -90,51 -14.5422,0 -28.87566,-6.50291 -37.77273,-18.80895 C 171.08894,700.95643 167.63743,680.95925 167.70711,667 L 169,408 l -84,0 0,280 c 0,70 30.70711,119 107.70711,119 z"
       id="path3622" />
  </g>
</svg>
